solid v3d.csg
  facet normal -1.0000000000 0.0000000000 0.0000000000
    outer loop
      vertex -76.6600036621 6.5799999237 0.0000000000
      vertex -76.6600036621 -11.6199998856 0.0000000000
      vertex -76.6600036621 -11.6199998856 12.6000003815
    endloop
  endfacet
  facet normal -1.0000000000 0.0000000000 0.0000000000
    outer loop
      vertex -76.6600036621 6.5799999237 0.0000000000
      vertex -76.6600036621 -11.6199998856 12.6000003815
      vertex -76.6600036621 6.5799999237 12.6000003815
    endloop
  endfacet
  facet normal 0.0000000000 -1.0000000000 0.0000000000
    outer loop
      vertex -81.3099975586 6.5799999237 0.0000000000
      vertex -76.6600036621 6.5799999237 0.0000000000
      vertex -76.6600036621 6.5799999237 12.6000003815
    endloop
  endfacet
  facet normal 0.0000000000 -1.0000000000 0.0000000000
    outer loop
      vertex -81.3099975586 6.5799999237 0.0000000000
      vertex -76.6600036621 6.5799999237 12.6000003815
      vertex -81.3099975586 6.5799999237 12.6000003815
    endloop
  endfacet
  facet normal -1.0000000000 0.0000000000 0.0000000000
    outer loop
      vertex -81.3099975586 9.1800003052 0.0000000000
      vertex -81.3099975586 6.5799999237 0.0000000000
      vertex -81.3099975586 6.5799999237 12.6000003815
    endloop
  endfacet
  facet normal -1.0000000000 0.0000000000 0.0000000000
    outer loop
      vertex -81.3099975586 9.1800003052 0.0000000000
      vertex -81.3099975586 6.5799999237 12.6000003815
      vertex -81.3099975586 9.1800003052 12.6000003815
    endloop
  endfacet
  facet normal 0.0000000000 1.0000000000 0.0000000000
    outer loop
      vertex -76.6600036621 9.1800003052 0.0000000000
      vertex -81.3099975586 9.1800003052 0.0000000000
      vertex -81.3099975586 9.1800003052 12.6000003815
    endloop
  endfacet
  facet normal 0.0000000000 1.0000000000 0.0000000000
    outer loop
      vertex -76.6600036621 9.1800003052 0.0000000000
      vertex -81.3099975586 9.1800003052 12.6000003815
      vertex -76.6600036621 9.1800003052 12.6000003815
    endloop
  endfacet
  facet normal -1.0000000000 0.0000000000 0.0000000000
    outer loop
      vertex -76.6600036621 15.0799999237 0.0000000000
      vertex -76.6600036621 9.1800003052 0.0000000000
      vertex -76.6600036621 9.1800003052 12.6000003815
    endloop
  endfacet
  facet normal -1.0000000000 0.0000000000 0.0000000000
    outer loop
      vertex -76.6600036621 15.0799999237 0.0000000000
      vertex -76.6600036621 9.1800003052 12.6000003815
      vertex -76.6600036621 15.0799999237 12.6000003815
    endloop
  endfacet
  facet normal 0.0000000000 1.0000000000 0.0000000000
    outer loop
      vertex -53.8600006104 15.0799999237 0.0000000000
      vertex -76.6600036621 15.0799999237 0.0000000000
      vertex -76.6600036621 15.0799999237 12.6000003815
    endloop
  endfacet
  facet normal 0.0000000000 1.0000000000 0.0000000000
    outer loop
      vertex -53.8600006104 15.0799999237 0.0000000000
      vertex -76.6600036621 15.0799999237 12.6000003815
      vertex -53.8600006104 15.0799999237 12.6000003815
    endloop
  endfacet
  facet normal 1.0000000000 0.0000000000 0.0000000000
    outer loop
      vertex -53.8600006104 15.0799999237 0.0000000000
      vertex -53.8600006104 15.0799999237 12.6000003815
      vertex -53.8600006104 9.1800003052 12.6000003815
    endloop
  endfacet
  facet normal 1.0000000000 0.0000000000 0.0000000000
    outer loop
      vertex -53.8600006104 9.1800003052 0.0000000000
      vertex -53.8600006104 15.0799999237 0.0000000000
      vertex -53.8600006104 9.1800003052 12.6000003815
    endloop
  endfacet
  facet normal 0.0000000000 1.0000000000 0.0000000000
    outer loop
      vertex -49.2099990845 9.1800003052 0.0000000000
      vertex -53.8600006104 9.1800003052 0.0000000000
      vertex -53.8600006104 9.1800003052 12.6000003815
    endloop
  endfacet
  facet normal 0.0000000000 1.0000000000 0.0000000000
    outer loop
      vertex -49.2099990845 9.1800003052 0.0000000000
      vertex -53.8600006104 9.1800003052 12.6000003815
      vertex -49.2099990845 9.1800003052 12.6000003815
    endloop
  endfacet
  facet normal 1.0000000000 0.0000000000 0.0000000000
    outer loop
      vertex -49.2099990845 9.1800003052 0.0000000000
      vertex -49.2099990845 9.1800003052 12.6000003815
      vertex -49.2099990845 6.5799999237 12.6000003815
    endloop
  endfacet
  facet normal 1.0000000000 0.0000000000 0.0000000000
    outer loop
      vertex -49.2099990845 6.5799999237 0.0000000000
      vertex -49.2099990845 9.1800003052 0.0000000000
      vertex -49.2099990845 6.5799999237 12.6000003815
    endloop
  endfacet
  facet normal 0.0000000000 -1.0000000000 0.0000000000
    outer loop
      vertex -49.2099990845 6.5799999237 0.0000000000
      vertex -49.2099990845 6.5799999237 12.6000003815
      vertex -53.8600006104 6.5799999237 12.6000003815
    endloop
  endfacet
  facet normal 0.0000000000 -1.0000000000 0.0000000000
    outer loop
      vertex -53.8600006104 6.5799999237 0.0000000000
      vertex -49.2099990845 6.5799999237 0.0000000000
      vertex -53.8600006104 6.5799999237 12.6000003815
    endloop
  endfacet
  facet normal 1.0000000000 0.0000000000 0.0000000000
    outer loop
      vertex -53.8600006104 -3.7200000286 0.0000000000
      vertex -53.8600006104 6.5799999237 0.0000000000
      vertex -53.8600006104 6.5799999237 12.6000003815
    endloop
  endfacet
  facet normal 1.0000000000 0.0000000000 0.0000000000
    outer loop
      vertex -53.8600006104 -3.7200000286 0.0000000000
      vertex -53.8600006104 6.5799999237 12.6000003815
      vertex -53.8600006104 -3.7200000286 12.6000003815
    endloop
  endfacet
  facet normal 0.0000000000 1.0000000000 0.0000000000
    outer loop
      vertex -27.6700000763 -3.7200000286 0.0000000000
      vertex -53.8600006104 -3.7200000286 0.0000000000
      vertex -53.8600006104 -3.7200000286 12.6000003815
    endloop
  endfacet
  facet normal 0.0000000000 1.0000000000 0.0000000000
    outer loop
      vertex -27.6700000763 -3.7200000286 0.0000000000
      vertex -53.8600006104 -3.7200000286 12.6000003815
      vertex -27.6700000763 -3.7200000286 12.6000003815
    endloop
  endfacet
  facet normal 1.0000000000 0.0000000000 0.0000000000
    outer loop
      vertex -27.6700000763 -6.6199998856 0.0000000000
      vertex -27.6700000763 -3.7200000286 0.0000000000
      vertex -27.6700000763 -3.7200000286 12.6000003815
    endloop
  endfacet
  facet normal 1.0000000000 0.0000000000 0.0000000000
    outer loop
      vertex -27.6700000763 -6.6199998856 0.0000000000
      vertex -27.6700000763 -3.7200000286 12.6000003815
      vertex -27.6700000763 -6.6199998856 12.6000003815
    endloop
  endfacet
  facet normal 0.0000000000 -1.0000000000 0.0000000000
    outer loop
      vertex -53.8600006104 -6.6199998856 0.0000000000
      vertex -27.6700000763 -6.6199998856 0.0000000000
      vertex -27.6700000763 -6.6199998856 12.6000003815
    endloop
  endfacet
  facet normal 0.0000000000 -1.0000000000 0.0000000000
    outer loop
      vertex -53.8600006104 -6.6199998856 0.0000000000
      vertex -27.6700000763 -6.6199998856 12.6000003815
      vertex -53.8600006104 -6.6199998856 12.6000003815
    endloop
  endfacet
  facet normal 1.0000000000 0.0000000000 0.0000000000
    outer loop
      vertex -53.8600006104 -11.6199998856 0.0000000000
      vertex -53.8600006104 -6.6199998856 0.0000000000
      vertex -53.8600006104 -6.6199998856 12.6000003815
    endloop
  endfacet
  facet normal 1.0000000000 0.0000000000 0.0000000000
    outer loop
      vertex -53.8600006104 -11.6199998856 0.0000000000
      vertex -53.8600006104 -6.6199998856 12.6000003815
      vertex -53.8600006104 -11.6199998856 12.6000003815
    endloop
  endfacet
  facet normal 0.0000000000 -1.0000000000 0.0000000000
    outer loop
      vertex -76.6600036621 -11.6199998856 0.0000000000
      vertex -53.8600006104 -11.6199998856 0.0000000000
      vertex -53.8600006104 -11.6199998856 12.6000003815
    endloop
  endfacet
  facet normal 0.0000000000 -1.0000000000 0.0000000000
    outer loop
      vertex -76.6600036621 -11.6199998856 0.0000000000
      vertex -53.8600006104 -11.6199998856 12.6000003815
      vertex -76.6600036621 -11.6199998856 12.6000003815
    endloop
  endfacet
  facet normal 0.0000000000 0.0000000000 -1.0000000000
    outer loop
      vertex -81.3099975586 9.1800003052 0.0000000000
      vertex -76.6600036621 6.5799999237 0.0000000000
      vertex -81.3099975586 6.5799999237 0.0000000000
    endloop
  endfacet
  facet normal 0.0000000000 0.0000000000 -1.0000000000
    outer loop
      vertex -81.3099975586 9.1800003052 0.0000000000
      vertex -76.6600036621 9.1800003052 0.0000000000
      vertex -76.6600036621 6.5799999237 0.0000000000
    endloop
  endfacet
  facet normal 0.0000000000 0.0000000000 -1.0000000000
    outer loop
      vertex -76.6600036621 -11.6199998856 0.0000000000
      vertex -53.8600006104 -6.6199998856 0.0000000000
      vertex -53.8600006104 -11.6199998856 0.0000000000
    endloop
  endfacet
  facet normal 0.0000000000 0.0000000000 -1.0000000000
    outer loop
      vertex -76.6600036621 6.5799999237 0.0000000000
      vertex -53.8600006104 -3.7200000286 0.0000000000
      vertex -76.6600036621 -11.6199998856 0.0000000000
    endloop
  endfacet
  facet normal 0.0000000000 0.0000000000 -1.0000000000
    outer loop
      vertex -76.6600036621 -11.6199998856 0.0000000000
      vertex -53.8600006104 -3.7200000286 0.0000000000
      vertex -53.8600006104 -6.6199998856 0.0000000000
    endloop
  endfacet
  facet normal 0.0000000000 0.0000000000 -1.0000000000
    outer loop
      vertex -76.6600036621 9.1800003052 0.0000000000
      vertex -53.8600006104 6.5799999237 0.0000000000
      vertex -76.6600036621 6.5799999237 0.0000000000
    endloop
  endfacet
  facet normal 0.0000000000 0.0000000000 -1.0000000000
    outer loop
      vertex -76.6600036621 6.5799999237 0.0000000000
      vertex -53.8600006104 6.5799999237 0.0000000000
      vertex -53.8600006104 -3.7200000286 0.0000000000
    endloop
  endfacet
  facet normal 0.0000000000 0.0000000000 -1.0000000000
    outer loop
      vertex -76.6600036621 9.1800003052 0.0000000000
      vertex -53.8600006104 9.1800003052 0.0000000000
      vertex -53.8600006104 6.5799999237 0.0000000000
    endloop
  endfacet
  facet normal 0.0000000000 0.0000000000 -1.0000000000
    outer loop
      vertex -53.8600006104 9.1800003052 0.0000000000
      vertex -49.2099990845 6.5799999237 0.0000000000
      vertex -53.8600006104 6.5799999237 0.0000000000
    endloop
  endfacet
  facet normal 0.0000000000 0.0000000000 -1.0000000000
    outer loop
      vertex -53.8600006104 9.1800003052 0.0000000000
      vertex -49.2099990845 9.1800003052 0.0000000000
      vertex -49.2099990845 6.5799999237 0.0000000000
    endloop
  endfacet
  facet normal 0.0000000000 0.0000000000 -1.0000000000
    outer loop
      vertex -76.6600036621 15.0799999237 0.0000000000
      vertex -53.8600006104 15.0799999237 0.0000000000
      vertex -76.6600036621 9.1800003052 0.0000000000
    endloop
  endfacet
  facet normal 0.0000000000 0.0000000000 -1.0000000000
    outer loop
      vertex -76.6600036621 9.1800003052 0.0000000000
      vertex -53.8600006104 15.0799999237 0.0000000000
      vertex -53.8600006104 9.1800003052 0.0000000000
    endloop
  endfacet
  facet normal 0.0000000000 0.0000000000 -1.0000000000
    outer loop
      vertex -53.8600006104 -3.7200000286 0.0000000000
      vertex -27.6700000763 -6.6199998856 0.0000000000
      vertex -53.8600006104 -6.6199998856 0.0000000000
    endloop
  endfacet
  facet normal 0.0000000000 0.0000000000 -1.0000000000
    outer loop
      vertex -53.8600006104 -3.7200000286 0.0000000000
      vertex -27.6700000763 -3.7200000286 0.0000000000
      vertex -27.6700000763 -6.6199998856 0.0000000000
    endloop
  endfacet
  facet normal 0.0000000000 0.0000000000 1.0000000000
    outer loop
      vertex -76.6600036621 6.5799999237 12.6000003815
      vertex -81.3099975586 9.1800003052 12.6000003815
      vertex -81.3099975586 6.5799999237 12.6000003815
    endloop
  endfacet
  facet normal 0.0000000000 0.0000000000 1.0000000000
    outer loop
      vertex -76.6600036621 9.1800003052 12.6000003815
      vertex -81.3099975586 9.1800003052 12.6000003815
      vertex -76.6600036621 6.5799999237 12.6000003815
    endloop
  endfacet
  facet normal 0.0000000000 0.0000000000 1.0000000000
    outer loop
      vertex -53.8600006104 -6.6199998856 12.6000003815
      vertex -76.6600036621 -11.6199998856 12.6000003815
      vertex -53.8600006104 -11.6199998856 12.6000003815
    endloop
  endfacet
  facet normal 0.0000000000 0.0000000000 1.0000000000
    outer loop
      vertex -53.8600006104 -3.7200000286 12.6000003815
      vertex -76.6600036621 6.5799999237 12.6000003815
      vertex -76.6600036621 -11.6199998856 12.6000003815
    endloop
  endfacet
  facet normal 0.0000000000 0.0000000000 1.0000000000
    outer loop
      vertex -53.8600006104 -3.7200000286 12.6000003815
      vertex -76.6600036621 -11.6199998856 12.6000003815
      vertex -53.8600006104 -6.6199998856 12.6000003815
    endloop
  endfacet
  facet normal 0.0000000000 0.0000000000 1.0000000000
    outer loop
      vertex -53.8600006104 6.5799999237 12.6000003815
      vertex -76.6600036621 9.1800003052 12.6000003815
      vertex -76.6600036621 6.5799999237 12.6000003815
    endloop
  endfacet
  facet normal 0.0000000000 0.0000000000 1.0000000000
    outer loop
      vertex -53.8600006104 6.5799999237 12.6000003815
      vertex -76.6600036621 6.5799999237 12.6000003815
      vertex -53.8600006104 -3.7200000286 12.6000003815
    endloop
  endfacet
  facet normal 0.0000000000 0.0000000000 1.0000000000
    outer loop
      vertex -53.8600006104 9.1800003052 12.6000003815
      vertex -76.6600036621 9.1800003052 12.6000003815
      vertex -53.8600006104 6.5799999237 12.6000003815
    endloop
  endfacet
  facet normal 0.0000000000 0.0000000000 1.0000000000
    outer loop
      vertex -49.2099990845 6.5799999237 12.6000003815
      vertex -53.8600006104 9.1800003052 12.6000003815
      vertex -53.8600006104 6.5799999237 12.6000003815
    endloop
  endfacet
  facet normal 0.0000000000 0.0000000000 1.0000000000
    outer loop
      vertex -49.2099990845 9.1800003052 12.6000003815
      vertex -53.8600006104 9.1800003052 12.6000003815
      vertex -49.2099990845 6.5799999237 12.6000003815
    endloop
  endfacet
  facet normal 0.0000000000 0.0000000000 1.0000000000
    outer loop
      vertex -53.8600006104 15.0799999237 12.6000003815
      vertex -76.6600036621 15.0799999237 12.6000003815
      vertex -76.6600036621 9.1800003052 12.6000003815
    endloop
  endfacet
  facet normal 0.0000000000 0.0000000000 1.0000000000
    outer loop
      vertex -53.8600006104 15.0799999237 12.6000003815
      vertex -76.6600036621 9.1800003052 12.6000003815
      vertex -53.8600006104 9.1800003052 12.6000003815
    endloop
  endfacet
  facet normal 0.0000000000 0.0000000000 1.0000000000
    outer loop
      vertex -27.6700000763 -6.6199998856 12.6000003815
      vertex -53.8600006104 -3.7200000286 12.6000003815
      vertex -53.8600006104 -6.6199998856 12.6000003815
    endloop
  endfacet
  facet normal 0.0000000000 0.0000000000 1.0000000000
    outer loop
      vertex -27.6700000763 -3.7200000286 12.6000003815
      vertex -53.8600006104 -3.7200000286 12.6000003815
      vertex -27.6700000763 -6.6199998856 12.6000003815
    endloop
  endfacet
  facet normal -1.0000000000 0.0000000000 0.0000000000
    outer loop
      vertex -76.6600036621 6.5799999237 0.0000000000
      vertex -76.6600036621 -11.6199998856 0.0000000000
      vertex -76.6600036621 -11.6199998856 12.6000003815
    endloop
  endfacet
  facet normal -1.0000000000 0.0000000000 0.0000000000
    outer loop
      vertex -76.6600036621 6.5799999237 0.0000000000
      vertex -76.6600036621 -11.6199998856 12.6000003815
      vertex -76.6600036621 6.5799999237 12.6000003815
    endloop
  endfacet
  facet normal 0.0000000000 -1.0000000000 0.0000000000
    outer loop
      vertex -81.3099975586 6.5799999237 0.0000000000
      vertex -76.6600036621 6.5799999237 0.0000000000
      vertex -76.6600036621 6.5799999237 12.6000003815
    endloop
  endfacet
  facet normal 0.0000000000 -1.0000000000 0.0000000000
    outer loop
      vertex -81.3099975586 6.5799999237 0.0000000000
      vertex -76.6600036621 6.5799999237 12.6000003815
      vertex -81.3099975586 6.5799999237 12.6000003815
    endloop
  endfacet
  facet normal -1.0000000000 0.0000000000 0.0000000000
    outer loop
      vertex -81.3099975586 9.1800003052 0.0000000000
      vertex -81.3099975586 6.5799999237 0.0000000000
      vertex -81.3099975586 6.5799999237 12.6000003815
    endloop
  endfacet
  facet normal -1.0000000000 0.0000000000 0.0000000000
    outer loop
      vertex -81.3099975586 9.1800003052 0.0000000000
      vertex -81.3099975586 6.5799999237 12.6000003815
      vertex -81.3099975586 9.1800003052 12.6000003815
    endloop
  endfacet
  facet normal 0.0000000000 1.0000000000 0.0000000000
    outer loop
      vertex -76.6600036621 9.1800003052 0.0000000000
      vertex -81.3099975586 9.1800003052 0.0000000000
      vertex -81.3099975586 9.1800003052 12.6000003815
    endloop
  endfacet
  facet normal 0.0000000000 1.0000000000 0.0000000000
    outer loop
      vertex -76.6600036621 9.1800003052 0.0000000000
      vertex -81.3099975586 9.1800003052 12.6000003815
      vertex -76.6600036621 9.1800003052 12.6000003815
    endloop
  endfacet
  facet normal -1.0000000000 0.0000000000 0.0000000000
    outer loop
      vertex -76.6600036621 15.0799999237 0.0000000000
      vertex -76.6600036621 9.1800003052 0.0000000000
      vertex -76.6600036621 9.1800003052 12.6000003815
    endloop
  endfacet
  facet normal -1.0000000000 0.0000000000 0.0000000000
    outer loop
      vertex -76.6600036621 15.0799999237 0.0000000000
      vertex -76.6600036621 9.1800003052 12.6000003815
      vertex -76.6600036621 15.0799999237 12.6000003815
    endloop
  endfacet
  facet normal 0.0000000000 1.0000000000 0.0000000000
    outer loop
      vertex -53.8600006104 15.0799999237 0.0000000000
      vertex -76.6600036621 15.0799999237 0.0000000000
      vertex -76.6600036621 15.0799999237 12.6000003815
    endloop
  endfacet
  facet normal 0.0000000000 1.0000000000 0.0000000000
    outer loop
      vertex -53.8600006104 15.0799999237 0.0000000000
      vertex -76.6600036621 15.0799999237 12.6000003815
      vertex -53.8600006104 15.0799999237 12.6000003815
    endloop
  endfacet
  facet normal 1.0000000000 0.0000000000 0.0000000000
    outer loop
      vertex -53.8600006104 15.0799999237 0.0000000000
      vertex -53.8600006104 15.0799999237 12.6000003815
      vertex -53.8600006104 9.1800003052 12.6000003815
    endloop
  endfacet
  facet normal 1.0000000000 0.0000000000 0.0000000000
    outer loop
      vertex -53.8600006104 9.1800003052 0.0000000000
      vertex -53.8600006104 15.0799999237 0.0000000000
      vertex -53.8600006104 9.1800003052 12.6000003815
    endloop
  endfacet
  facet normal 0.0000000000 1.0000000000 0.0000000000
    outer loop
      vertex -49.2099990845 9.1800003052 0.0000000000
      vertex -53.8600006104 9.1800003052 0.0000000000
      vertex -53.8600006104 9.1800003052 12.6000003815
    endloop
  endfacet
  facet normal 0.0000000000 1.0000000000 0.0000000000
    outer loop
      vertex -49.2099990845 9.1800003052 0.0000000000
      vertex -53.8600006104 9.1800003052 12.6000003815
      vertex -49.2099990845 9.1800003052 12.6000003815
    endloop
  endfacet
  facet normal 1.0000000000 0.0000000000 0.0000000000
    outer loop
      vertex -49.2099990845 9.1800003052 0.0000000000
      vertex -49.2099990845 9.1800003052 12.6000003815
      vertex -49.2099990845 6.5799999237 12.6000003815
    endloop
  endfacet
  facet normal 1.0000000000 0.0000000000 0.0000000000
    outer loop
      vertex -49.2099990845 6.5799999237 0.0000000000
      vertex -49.2099990845 9.1800003052 0.0000000000
      vertex -49.2099990845 6.5799999237 12.6000003815
    endloop
  endfacet
  facet normal 0.0000000000 -1.0000000000 0.0000000000
    outer loop
      vertex -49.2099990845 6.5799999237 0.0000000000
      vertex -49.2099990845 6.5799999237 12.6000003815
      vertex -53.8600006104 6.5799999237 12.6000003815
    endloop
  endfacet
  facet normal 0.0000000000 -1.0000000000 0.0000000000
    outer loop
      vertex -53.8600006104 6.5799999237 0.0000000000
      vertex -49.2099990845 6.5799999237 0.0000000000
      vertex -53.8600006104 6.5799999237 12.6000003815
    endloop
  endfacet
  facet normal 1.0000000000 0.0000000000 0.0000000000
    outer loop
      vertex -53.8600006104 -3.7200000286 0.0000000000
      vertex -53.8600006104 6.5799999237 0.0000000000
      vertex -53.8600006104 6.5799999237 12.6000003815
    endloop
  endfacet
  facet normal 1.0000000000 0.0000000000 0.0000000000
    outer loop
      vertex -53.8600006104 -3.7200000286 0.0000000000
      vertex -53.8600006104 6.5799999237 12.6000003815
      vertex -53.8600006104 -3.7200000286 12.6000003815
    endloop
  endfacet
  facet normal 0.0000000000 1.0000000000 0.0000000000
    outer loop
      vertex -27.6700000763 -3.7200000286 0.0000000000
      vertex -53.8600006104 -3.7200000286 0.0000000000
      vertex -53.8600006104 -3.7200000286 12.6000003815
    endloop
  endfacet
  facet normal 0.0000000000 1.0000000000 0.0000000000
    outer loop
      vertex -27.6700000763 -3.7200000286 0.0000000000
      vertex -53.8600006104 -3.7200000286 12.6000003815
      vertex -27.6700000763 -3.7200000286 12.6000003815
    endloop
  endfacet
  facet normal 1.0000000000 0.0000000000 0.0000000000
    outer loop
      vertex -27.6700000763 -6.6199998856 0.0000000000
      vertex -27.6700000763 -3.7200000286 0.0000000000
      vertex -27.6700000763 -3.7200000286 12.6000003815
    endloop
  endfacet
  facet normal 1.0000000000 0.0000000000 0.0000000000
    outer loop
      vertex -27.6700000763 -6.6199998856 0.0000000000
      vertex -27.6700000763 -3.7200000286 12.6000003815
      vertex -27.6700000763 -6.6199998856 12.6000003815
    endloop
  endfacet
  facet normal 0.0000000000 -1.0000000000 0.0000000000
    outer loop
      vertex -53.8600006104 -6.6199998856 0.0000000000
      vertex -27.6700000763 -6.6199998856 0.0000000000
      vertex -27.6700000763 -6.6199998856 12.6000003815
    endloop
  endfacet
  facet normal 0.0000000000 -1.0000000000 0.0000000000
    outer loop
      vertex -53.8600006104 -6.6199998856 0.0000000000
      vertex -27.6700000763 -6.6199998856 12.6000003815
      vertex -53.8600006104 -6.6199998856 12.6000003815
    endloop
  endfacet
  facet normal 1.0000000000 0.0000000000 0.0000000000
    outer loop
      vertex -53.8600006104 -11.6199998856 0.0000000000
      vertex -53.8600006104 -6.6199998856 0.0000000000
      vertex -53.8600006104 -6.6199998856 12.6000003815
    endloop
  endfacet
  facet normal 1.0000000000 0.0000000000 0.0000000000
    outer loop
      vertex -53.8600006104 -11.6199998856 0.0000000000
      vertex -53.8600006104 -6.6199998856 12.6000003815
      vertex -53.8600006104 -11.6199998856 12.6000003815
    endloop
  endfacet
  facet normal 0.0000000000 -1.0000000000 0.0000000000
    outer loop
      vertex -76.6600036621 -11.6199998856 0.0000000000
      vertex -53.8600006104 -11.6199998856 0.0000000000
      vertex -53.8600006104 -11.6199998856 12.6000003815
    endloop
  endfacet
  facet normal 0.0000000000 -1.0000000000 0.0000000000
    outer loop
      vertex -76.6600036621 -11.6199998856 0.0000000000
      vertex -53.8600006104 -11.6199998856 12.6000003815
      vertex -76.6600036621 -11.6199998856 12.6000003815
    endloop
  endfacet
  facet normal 0.0000000000 0.0000000000 -1.0000000000
    outer loop
      vertex -81.3099975586 9.1800003052 0.0000000000
      vertex -76.6600036621 6.5799999237 0.0000000000
      vertex -81.3099975586 6.5799999237 0.0000000000
    endloop
  endfacet
  facet normal 0.0000000000 0.0000000000 -1.0000000000
    outer loop
      vertex -81.3099975586 9.1800003052 0.0000000000
      vertex -76.6600036621 9.1800003052 0.0000000000
      vertex -76.6600036621 6.5799999237 0.0000000000
    endloop
  endfacet
  facet normal 0.0000000000 0.0000000000 -1.0000000000
    outer loop
      vertex -76.6600036621 -11.6199998856 0.0000000000
      vertex -53.8600006104 -6.6199998856 0.0000000000
      vertex -53.8600006104 -11.6199998856 0.0000000000
    endloop
  endfacet
  facet normal 0.0000000000 0.0000000000 -1.0000000000
    outer loop
      vertex -76.6600036621 6.5799999237 0.0000000000
      vertex -53.8600006104 -3.7200000286 0.0000000000
      vertex -76.6600036621 -11.6199998856 0.0000000000
    endloop
  endfacet
  facet normal 0.0000000000 0.0000000000 -1.0000000000
    outer loop
      vertex -76.6600036621 -11.6199998856 0.0000000000
      vertex -53.8600006104 -3.7200000286 0.0000000000
      vertex -53.8600006104 -6.6199998856 0.0000000000
    endloop
  endfacet
  facet normal 0.0000000000 0.0000000000 -1.0000000000
    outer loop
      vertex -76.6600036621 9.1800003052 0.0000000000
      vertex -53.8600006104 6.5799999237 0.0000000000
      vertex -76.6600036621 6.5799999237 0.0000000000
    endloop
  endfacet
  facet normal 0.0000000000 0.0000000000 -1.0000000000
    outer loop
      vertex -76.6600036621 6.5799999237 0.0000000000
      vertex -53.8600006104 6.5799999237 0.0000000000
      vertex -53.8600006104 -3.7200000286 0.0000000000
    endloop
  endfacet
  facet normal 0.0000000000 0.0000000000 -1.0000000000
    outer loop
      vertex -76.6600036621 9.1800003052 0.0000000000
      vertex -53.8600006104 9.1800003052 0.0000000000
      vertex -53.8600006104 6.5799999237 0.0000000000
    endloop
  endfacet
  facet normal 0.0000000000 0.0000000000 -1.0000000000
    outer loop
      vertex -53.8600006104 9.1800003052 0.0000000000
      vertex -49.2099990845 6.5799999237 0.0000000000
      vertex -53.8600006104 6.5799999237 0.0000000000
    endloop
  endfacet
  facet normal 0.0000000000 0.0000000000 -1.0000000000
    outer loop
      vertex -53.8600006104 9.1800003052 0.0000000000
      vertex -49.2099990845 9.1800003052 0.0000000000
      vertex -49.2099990845 6.5799999237 0.0000000000
    endloop
  endfacet
  facet normal 0.0000000000 0.0000000000 -1.0000000000
    outer loop
      vertex -76.6600036621 15.0799999237 0.0000000000
      vertex -53.8600006104 15.0799999237 0.0000000000
      vertex -76.6600036621 9.1800003052 0.0000000000
    endloop
  endfacet
  facet normal 0.0000000000 0.0000000000 -1.0000000000
    outer loop
      vertex -76.6600036621 9.1800003052 0.0000000000
      vertex -53.8600006104 15.0799999237 0.0000000000
      vertex -53.8600006104 9.1800003052 0.0000000000
    endloop
  endfacet
  facet normal 0.0000000000 0.0000000000 -1.0000000000
    outer loop
      vertex -53.8600006104 -3.7200000286 0.0000000000
      vertex -27.6700000763 -6.6199998856 0.0000000000
      vertex -53.8600006104 -6.6199998856 0.0000000000
    endloop
  endfacet
  facet normal 0.0000000000 0.0000000000 -1.0000000000
    outer loop
      vertex -53.8600006104 -3.7200000286 0.0000000000
      vertex -27.6700000763 -3.7200000286 0.0000000000
      vertex -27.6700000763 -6.6199998856 0.0000000000
    endloop
  endfacet
  facet normal 0.0000000000 0.0000000000 1.0000000000
    outer loop
      vertex -76.6600036621 6.5799999237 12.6000003815
      vertex -81.3099975586 9.1800003052 12.6000003815
      vertex -81.3099975586 6.5799999237 12.6000003815
    endloop
  endfacet
  facet normal 0.0000000000 0.0000000000 1.0000000000
    outer loop
      vertex -76.6600036621 9.1800003052 12.6000003815
      vertex -81.3099975586 9.1800003052 12.6000003815
      vertex -76.6600036621 6.5799999237 12.6000003815
    endloop
  endfacet
  facet normal 0.0000000000 0.0000000000 1.0000000000
    outer loop
      vertex -53.8600006104 -6.6199998856 12.6000003815
      vertex -76.6600036621 -11.6199998856 12.6000003815
      vertex -53.8600006104 -11.6199998856 12.6000003815
    endloop
  endfacet
  facet normal 0.0000000000 0.0000000000 1.0000000000
    outer loop
      vertex -53.8600006104 -3.7200000286 12.6000003815
      vertex -76.6600036621 6.5799999237 12.6000003815
      vertex -76.6600036621 -11.6199998856 12.6000003815
    endloop
  endfacet
  facet normal 0.0000000000 0.0000000000 1.0000000000
    outer loop
      vertex -53.8600006104 -3.7200000286 12.6000003815
      vertex -76.6600036621 -11.6199998856 12.6000003815
      vertex -53.8600006104 -6.6199998856 12.6000003815
    endloop
  endfacet
  facet normal 0.0000000000 0.0000000000 1.0000000000
    outer loop
      vertex -53.8600006104 6.5799999237 12.6000003815
      vertex -76.6600036621 9.1800003052 12.6000003815
      vertex -76.6600036621 6.5799999237 12.6000003815
    endloop
  endfacet
  facet normal 0.0000000000 0.0000000000 1.0000000000
    outer loop
      vertex -53.8600006104 6.5799999237 12.6000003815
      vertex -76.6600036621 6.5799999237 12.6000003815
      vertex -53.8600006104 -3.7200000286 12.6000003815
    endloop
  endfacet
  facet normal 0.0000000000 0.0000000000 1.0000000000
    outer loop
      vertex -53.8600006104 9.1800003052 12.6000003815
      vertex -76.6600036621 9.1800003052 12.6000003815
      vertex -53.8600006104 6.5799999237 12.6000003815
    endloop
  endfacet
  facet normal 0.0000000000 0.0000000000 1.0000000000
    outer loop
      vertex -49.2099990845 6.5799999237 12.6000003815
      vertex -53.8600006104 9.1800003052 12.6000003815
      vertex -53.8600006104 6.5799999237 12.6000003815
    endloop
  endfacet
  facet normal 0.0000000000 0.0000000000 1.0000000000
    outer loop
      vertex -49.2099990845 9.1800003052 12.6000003815
      vertex -53.8600006104 9.1800003052 12.6000003815
      vertex -49.2099990845 6.5799999237 12.6000003815
    endloop
  endfacet
  facet normal 0.0000000000 0.0000000000 1.0000000000
    outer loop
      vertex -53.8600006104 15.0799999237 12.6000003815
      vertex -76.6600036621 15.0799999237 12.6000003815
      vertex -76.6600036621 9.1800003052 12.6000003815
    endloop
  endfacet
  facet normal 0.0000000000 0.0000000000 1.0000000000
    outer loop
      vertex -53.8600006104 15.0799999237 12.6000003815
      vertex -76.6600036621 9.1800003052 12.6000003815
      vertex -53.8600006104 9.1800003052 12.6000003815
    endloop
  endfacet
  facet normal 0.0000000000 0.0000000000 1.0000000000
    outer loop
      vertex -27.6700000763 -6.6199998856 12.6000003815
      vertex -53.8600006104 -3.7200000286 12.6000003815
      vertex -53.8600006104 -6.6199998856 12.6000003815
    endloop
  endfacet
  facet normal 0.0000000000 0.0000000000 1.0000000000
    outer loop
      vertex -27.6700000763 -3.7200000286 12.6000003815
      vertex -53.8600006104 -3.7200000286 12.6000003815
      vertex -27.6700000763 -6.6199998856 12.6000003815
    endloop
  endfacet
endsolid v3d.csg
